# xmcd
#
# Track frame offsets:
#	150
#	11243
#	22984
#	35079
#	45812
#	56094
#	68769
#	79964
#	91982
#	103440
#	115864
#	126194
#	138613
#	150510
#	163324
#	174707
#	185802
#	197301
#	207648
#
# Disc length: 2888 seconds
#
# Revision: 1
# Processed by: cddbd v1.5.2PL0 Copyright (c) Steve Scherf et al.
# Submitted via: audiograbber 1.83.01
#
DISCID=130b4613
DTITLE=Connie Francis - The Majesty Of Love
DYEAR=1900
DGENRE=Oldies
TTITLE0=(Oh Please) Make Him Jealous
TTITLE1=Are You Satisfield?
TTITLE2=Believe In Me
TTITLE3=Didn't I Love You Enough?
TTITLE4=Eighteen
TTITLE5=Everybody Needs Someone
TTITLE6=Forgetting
TTITLE7=Freddy
TTITLE8=Goody Goodbye
TTITLE9=I Never Had A Sweetheart
TTITLE10=Little Blue Wren
TTITLE11=My First Real Love
TTITLE12=My Sailor Boy
TTITLE13=My Treasure
TTITLE14=No Other One
TTITLE15=Send For My Baby
TTITLE16=The Majesty Of Love with Marvin Rainwater
TTITLE17=Who's Sorry Now?
TTITLE18=You My Darling You with Marvin Rainwater
EXTD=
EXTT0=
EXTT1=
EXTT2=
EXTT3=
EXTT4=
EXTT5=
EXTT6=
EXTT7=
EXTT8=
EXTT9=
EXTT10=
EXTT11=
EXTT12=
EXTT13=
EXTT14=
EXTT15=
EXTT16=
EXTT17=
EXTT18=
PLAYORDER=
